<svg xmlns="http://www.w3.org/2000/svg" viewBox="0 0 800 240" fill="none">
  
  

  
  <g transform="translate(20,40)">
    <rect class="node" width="120" height="40"></rect>
    <text class="label" x="10" y="16">CLIENT · 01</text>
    <text class="label" x="10" y="32">app.web</text>
  </g>
  <g transform="translate(20,100)">
    <rect class="node" width="120" height="40"></rect>
    <text class="label" x="10" y="16">CLIENT · 02</text>
    <text class="label" x="10" y="32">app.mobile</text>
  </g>
  <g transform="translate(20,160)">
    <rect class="node" width="120" height="40"></rect>
    <text class="label" x="10" y="16">CLIENT · 03</text>
    <text class="label" x="10" y="32">cli</text>
  </g>

  
  <path class="lane" d="M140 60 L300 120"></path>
  <path class="lane-live" d="M140 120 L300 120"></path>
  <path class="lane" d="M140 180 L300 120"></path>

  
  <g transform="translate(300,40)">
    <rect class="node node-mid" width="200" height="160"></rect>
    <text class="label label-on" x="14" y="22">TSM79 · CONTROL</text>
    <line x1="0" y1="40" x2="200" y2="40" stroke="#F2EDE3" stroke-width="0.5" opacity="0.3"></line>
    <text class="label" x="14" y="58">▸ POLICY</text>
    <text class="label" x="14" y="78">▸ ROUTE</text>
    <text class="label" x="14" y="98">▸ OBSERVE</text>
    <text class="label" x="14" y="118">▸ AUDIT</text>
    <line x1="0" y1="130" x2="200" y2="130" stroke="#F2EDE3" stroke-width="0.5" opacity="0.3"></line>
    <text class="label label-on" x="14" y="148">12 ms · 0 leak</text>
    <rect x="180" y="14" width="6" height="6" fill="#C7F23E"></rect>
  </g>

  
  <path class="lane-live" d="M500 120 L660 60"></path>
  <path class="lane" d="M500 120 L660 120"></path>
  <path class="lane" d="M500 120 L660 180"></path>

  
  <g transform="translate(660,40)">
    <rect class="node" width="120" height="40"></rect>
    <text class="label" x="10" y="16">MODEL · A</text>
    <text class="label" x="10" y="32">public · cloud</text>
  </g>
  <g transform="translate(660,100)">
    <rect class="node" width="120" height="40"></rect>
    <text class="label" x="10" y="16">MODEL · B</text>
    <text class="label" x="10" y="32">private · vpc</text>
  </g>
  <g transform="translate(660,160)">
    <rect class="node" width="120" height="40"></rect>
    <text class="label" x="10" y="16">MODEL · C</text>
    <text class="label" x="10" y="32">sovereign · onprem</text>
  </g>
</svg>